<svg width="26" height="22" viewBox="0 0 26 22" fill="none" xmlns="http://www.w3.org/2000/svg">
<path d="M1.36248 10.3031C3.81774 8.94228 6.55848 7.80653 9.1193 6.66498C13.5249 4.7952 17.948 2.95782 22.4157 1.24725C23.285 0.955782 24.8469 0.670745 25 1.96693C24.9162 3.80166 24.5712 5.62565 24.3345 7.44964C23.7339 11.4608 23.0398 15.4582 22.3629 19.4561C22.1297 20.7877 20.4717 21.4771 19.4109 20.6249C16.8614 18.8922 14.2924 17.1763 11.7755 15.4034C10.951 14.5604 11.7156 13.3499 12.4519 12.748C14.5517 10.6658 16.7786 8.89676 18.7686 6.70698C19.3054 5.40261 17.7193 6.5019 17.1962 6.83871C14.3215 8.83195 11.5173 10.9469 8.48649 12.6987C6.93838 13.5561 5.13403 12.8233 3.58662 12.3448C2.19916 11.7669 0.166036 11.1845 1.36234 10.3032L1.36248 10.3031Z" stroke="white" stroke-width="2"/>
</svg>
