<svg width="38" height="38" viewBox="0 0 38 38" fill="none" xmlns="http://www.w3.org/2000/svg">
<path d="M6.4 19C6.4 12.0412 12.0412 6.4 19 6.4M27.0998 10.9L18.9998 19M37 19C37 28.9411 28.9411 37 19 37C9.05887 37 1 28.9411 1 19C1 9.05887 9.05887 1 19 1C28.9411 1 37 9.05887 37 19ZM20.8 19C20.8 19.9941 19.9941 20.8 19 20.8C18.0059 20.8 17.2 19.9941 17.2 19C17.2 18.0059 18.0059 17.2 19 17.2C19.9941 17.2 20.8 18.0059 20.8 19Z" stroke="white" stroke-width="2" stroke-linecap="round" stroke-linejoin="round"/>
</svg>
