<svg width="48" height="29" viewBox="0 0 48 29" fill="none" xmlns="http://www.w3.org/2000/svg">
<path d="M18.25 28L27.45 14.5H13.65L22.85 1M47 16.75V12.25M28.6 28H29.06C32.9244 28 34.8565 28 36.3325 27.2643C37.6308 26.6171 38.6864 25.5845 39.3479 24.3144C40.1 22.8705 40.1 20.9804 40.1 17.2V10C40.1 7.90756 40.1 6.86135 39.8649 6.00297C39.2269 3.6736 37.367 1.85415 34.9858 1.23C34.1084 1 33.0389 1 30.9 1M12.5 1H12.04C8.17564 1 6.24346 1 4.76747 1.73571C3.46915 2.38285 2.41358 3.41547 1.75205 4.68556C1 6.12947 1 8.01965 1 11.8L1 19C1 21.0924 1 22.1387 1.23511 22.997C1.87314 25.3264 3.73301 27.1458 6.11415 27.77C6.9916 28 8.06107 28 10.2 28" stroke="white" stroke-width="2" stroke-linecap="round" stroke-linejoin="round"/>
</svg>
