<svg width="50" height="36" viewBox="0 0 50 36" fill="none" xmlns="http://www.w3.org/2000/svg">
<path d="M45.6587 18.2706L45.0833 18.4084V19V34C45.0833 34.3214 44.9506 34.6362 44.7037 34.8732C44.4558 35.1112 44.1133 35.25 43.75 35.25H41.6667C41.3034 35.25 40.9608 35.1112 40.7129 34.8732C40.466 34.6362 40.3333 34.3214 40.3333 34V32V31.25H39.5833H10.4167H9.66667V32V34C9.66667 34.3214 9.53395 34.6362 9.28707 34.8732C9.03916 35.1112 8.69661 35.25 8.33333 35.25H6.25C5.88672 35.25 5.54418 35.1112 5.29626 34.8732C5.04938 34.6362 4.91667 34.3214 4.91667 34V19V18.4084L4.3413 18.2706L1.75245 17.6508C1.45793 17.58 1.20234 17.418 1.02291 17.1973C0.843979 16.9772 0.750007 16.7106 0.75 16.44V15C0.75 14.9438 0.77297 14.8834 0.824496 14.8339C0.877063 14.7835 0.954656 14.75 1.04167 14.75H4.94792H5.46016L5.64652 14.2729L10.1007 2.86886L10.1007 2.86879C10.3411 2.25318 10.7736 1.71739 11.3458 1.33674C11.9183 0.955864 12.6015 0.749916 13.3041 0.75H13.3042H36.6958L36.6959 0.75C37.3985 0.749916 38.0817 0.955864 38.6542 1.33674C39.2264 1.71739 39.6589 2.25318 39.8993 2.86879L39.8993 2.86886L44.3535 14.2729L44.5398 14.75H45.0521H48.9583C49.0453 14.75 49.1229 14.7835 49.1755 14.8339C49.227 14.8834 49.25 14.9438 49.25 15V16.44C49.25 16.7106 49.156 16.9772 48.9771 17.1973C48.7977 17.418 48.5421 17.58 48.2475 17.6508L45.6587 18.2706ZM8.33333 21.25H7.58333V22V22.6784C7.58333 23.4178 7.8896 24.1205 8.42413 24.6336L8.94353 24.0926L8.42413 24.6336C8.95761 25.1458 9.67488 25.4284 10.4167 25.4284H17.1771H17.1782C17.482 25.4279 17.782 25.352 18.0493 25.2062C18.3168 25.0602 18.5441 24.8483 18.7061 24.588L18.0695 24.1915L18.7061 24.588C18.8684 24.3274 18.959 24.0285 18.9666 23.7205C18.9742 23.4124 18.8984 23.1093 18.7488 22.8411L18.5871 22.5513L18.264 22.476C18.0084 22.4164 17.7656 22.3597 17.5342 22.3056C15.4434 21.8171 14.2923 21.5481 13.1774 21.4068C11.941 21.25 10.7507 21.25 8.3929 21.25H8.33333ZM42.4167 22V21.25H41.6667H41.6072C39.2503 21.25 38.0601 21.25 36.8231 21.4067C35.7069 21.5482 34.554 21.8175 32.4591 22.3068C32.2291 22.3605 31.9879 22.4168 31.734 22.4759L31.4108 22.5512L31.2491 22.8411C31.0994 23.1096 31.0236 23.413 31.0314 23.7214C31.0391 24.0297 31.13 24.3289 31.2927 24.5895C31.4552 24.8499 31.683 25.0618 31.9509 25.2075C32.2187 25.353 32.519 25.4285 32.8229 25.4284C32.823 25.4284 32.8231 25.4284 32.8232 25.4284H39.5833C40.3251 25.4284 41.0424 25.1458 41.5759 24.6336C42.1104 24.1205 42.4167 23.4178 42.4167 22.6784V22ZM12.5 3.25H11.9665L11.7915 3.75404L8.53939 13.122L8.53935 13.1222C8.39475 13.539 8.35508 13.9838 8.42428 14.4193C8.49347 14.8547 8.66907 15.2658 8.9342 15.6191C9.19921 15.9723 9.54564 16.2572 9.94309 16.4528C10.3404 16.6483 10.7788 16.7497 11.2224 16.75H11.2229H38.7771H38.7776C39.2212 16.7497 39.6596 16.6483 40.0569 16.4528C40.4544 16.2572 40.8008 15.9723 41.0658 15.6191C41.3309 15.2658 41.5065 14.8547 41.5757 14.4193C41.6449 13.9838 41.6053 13.539 41.4607 13.1222L41.4606 13.122L38.2085 3.75404L38.0335 3.25H37.5H12.5Z" stroke="white" stroke-width="1.5"/>
</svg>
