<svg width="60" height="61" viewBox="0 0 60 61" fill="none" xmlns="http://www.w3.org/2000/svg">
<g clip-path="url(#clip0_2035_9)">
<path d="M49.3502 10.1455V2.9407C49.3502 2.91632 49.3428 2.89227 49.3288 2.87223C49.3151 2.85219 49.2954 2.83649 49.2727 2.82781C49.2497 2.81913 49.2246 2.81746 49.2009 2.82313C49.1772 2.82881 49.1555 2.84184 49.1392 2.85987L35.7823 17.7407C34.8253 18.8068 34.2776 20.1782 34.2369 21.6106L33.4161 50.2942C33.4154 50.3213 33.4234 50.3477 33.4394 50.3694C33.4554 50.3911 33.4781 50.4068 33.5038 50.4141C33.5299 50.4215 33.5572 50.4202 33.5823 50.4098C33.6073 50.3998 33.628 50.3817 33.6414 50.3584L35.308 47.4677C35.5039 47.128 35.6318 46.7536 35.6849 46.3649L38.0665 28.8923C38.413 26.3509 39.5576 23.9853 41.335 22.137L46.815 16.4385C48.4412 14.7475 49.3495 12.4921 49.3495 10.1455H49.3502Z" fill="black"/>
<path d="M10.6499 10.1455V2.9407C10.6499 2.91632 10.6572 2.89227 10.6713 2.87223C10.685 2.85219 10.7046 2.83649 10.7277 2.82781C10.7504 2.81913 10.7754 2.81746 10.7991 2.82313C10.8228 2.82881 10.8445 2.84184 10.8609 2.85987L24.2177 17.7407C25.1747 18.8068 25.7225 20.1782 25.7632 21.6106L26.584 50.2942C26.5847 50.3213 26.5767 50.3477 26.5606 50.3694C26.5446 50.3911 26.5219 50.4068 26.4962 50.4141C26.4702 50.4215 26.4428 50.4202 26.4178 50.4098C26.3927 50.3998 26.372 50.3817 26.3587 50.3584L24.692 47.4677C24.4961 47.128 24.3683 46.7536 24.3152 46.3649L21.9332 28.8923C21.5867 26.3509 20.4421 23.9853 18.6647 22.137L13.1848 16.4385C11.5582 14.7479 10.6499 12.4924 10.6499 10.1455Z" fill="black"/>
<path d="M31.7164 19.0164L30.1582 17.666C30.1141 17.628 30.0581 17.6069 30 17.6069C29.9419 17.6069 29.8855 17.628 29.8418 17.666L28.2839 19.0164C28.1484 19.1339 28.0409 19.2799 27.9685 19.4439C27.8964 19.6082 27.8617 19.7862 27.8667 19.9656L28.9111 56.4832C28.9141 56.5834 28.9418 56.6816 28.9919 56.7684L29.8952 58.3338C29.9058 58.3525 29.9212 58.3675 29.9396 58.3782C29.9579 58.3889 29.9789 58.3946 30 58.3946C30.021 58.3946 30.042 58.3889 30.0604 58.3782C30.0788 58.3675 30.0941 58.3525 30.1048 58.3338L31.0087 56.7677C31.0588 56.6809 31.0865 56.5827 31.0895 56.4825L32.1339 19.9656C32.1389 19.7862 32.1042 19.6082 32.0321 19.4439C31.96 19.2795 31.8522 19.1336 31.7167 19.016L31.7164 19.0164Z" fill="black"/>
</g>
<defs>
<clipPath id="clip0_2035_9">
<rect width="38.7" height="55.575" fill="white" transform="translate(10.6499 2.81982)"/>
</clipPath>
</defs>
</svg>
