<svg width="32" height="27" viewBox="0 0 32 27" fill="none" xmlns="http://www.w3.org/2000/svg">
<path d="M22.315 8.39914L22.2747 9.14805L23.2289 9.19944L23.0521 8.26032L22.315 8.39914ZM12.4402 18.4479L12.4769 19.197L13.462 19.1487L13.1522 18.2124L12.4402 18.4479ZM8.32788 18.0239L8.11983 18.7445L8.13156 18.7477L8.32788 18.0239ZM8.14553 17.9727L8.3455 17.2498L8.06908 17.1734L7.81216 17.3008L8.14553 17.9727ZM4.27034 19.8956L3.55762 19.6621L3.00031 21.363L4.60371 20.5674L4.27034 19.8956ZM5.30593 16.7349L6.01865 16.9684L6.20258 16.407L5.6999 16.0967L5.30593 16.7349ZM5.20762 16.6742L4.81062 17.3105L4.81365 17.3124L5.20762 16.6742ZM21.864 9.13963C22.0122 9.13963 22.146 9.14112 22.2747 9.14805L22.3553 7.65022C22.1853 7.64106 22.019 7.63963 21.864 7.63963V9.13963ZM12.8495 16.3642C12.8495 12.5082 16.7379 9.13963 21.864 9.13963V7.63963C16.208 7.63963 11.3495 11.4099 11.3495 16.3642H12.8495ZM13.1522 18.2124C12.956 17.6192 12.8495 17.0004 12.8495 16.3642H11.3495C11.3495 17.1698 11.4846 17.9474 11.7282 18.6835L13.1522 18.2124ZM11.7198 19.2191C11.98 19.2191 12.2347 19.2089 12.4769 19.197L12.4035 17.6988C12.1685 17.7103 11.9428 17.7191 11.7198 17.7191V19.2191ZM8.13156 18.7477C9.26087 19.054 10.469 19.2191 11.7198 19.2191V17.7191C10.6007 17.7191 9.52459 17.5713 8.5242 17.3L8.13156 18.7477ZM8.14553 17.9727C7.94555 18.6955 7.94555 18.6955 7.94555 18.6955C7.94555 18.6955 7.94555 18.6955 7.94555 18.6955C7.94555 18.6955 7.94555 18.6955 7.94555 18.6955C7.94556 18.6955 7.94558 18.6955 7.9456 18.6955C7.94565 18.6956 7.94573 18.6956 7.94583 18.6956C7.94604 18.6957 7.94637 18.6958 7.9468 18.6959C7.94765 18.6961 7.94894 18.6965 7.95061 18.6969C7.95395 18.6979 7.95882 18.6992 7.96487 18.7009C7.97698 18.7042 7.99373 18.7089 8.01232 18.7141C8.05039 18.7247 8.09304 18.7367 8.11986 18.7444L8.5359 17.3033C8.50193 17.2935 8.45341 17.2799 8.4155 17.2693C8.39609 17.2639 8.37866 17.259 8.36607 17.2555C8.35977 17.2538 8.35467 17.2524 8.35113 17.2514C8.34935 17.2509 8.34797 17.2505 8.34702 17.2502C8.34654 17.2501 8.34617 17.25 8.34592 17.2499C8.34579 17.2499 8.34569 17.2499 8.34562 17.2499C8.34559 17.2499 8.34556 17.2498 8.34554 17.2498C8.34553 17.2498 8.34552 17.2498 8.34552 17.2498C8.34552 17.2498 8.34551 17.2498 8.34551 17.2498C8.34551 17.2498 8.3455 17.2498 8.14553 17.9727ZM4.60371 20.5674L8.4789 18.6445L7.81216 17.3008L3.93697 19.2237L4.60371 20.5674ZM4.59321 16.5013L3.55762 19.6621L4.98306 20.1291L6.01865 16.9684L4.59321 16.5013ZM4.81365 17.3124L4.91196 17.3731L5.6999 16.0967L5.60159 16.036L4.81365 17.3124ZM0.25 9.73493C0.25 12.8752 2.08162 15.6078 4.81062 17.3105L5.60462 16.0379C3.21724 14.5484 1.75 12.2522 1.75 9.73493H0.25ZM11.7198 0.25C5.53556 0.25 0.25 4.36044 0.25 9.73493H1.75C1.75 5.46129 6.06235 1.75 11.7198 1.75V0.25ZM23.0521 8.26032C22.178 3.6194 17.3369 0.25 11.7198 0.25V1.75C16.8277 1.75 20.8731 4.79562 21.578 8.53795L23.0521 8.26032ZM5.73413 6.72622C5.73413 7.96428 6.78502 8.89683 7.98948 8.89683V7.39683C7.531 7.39683 7.23413 7.05574 7.23413 6.72622H5.73413ZM7.98948 4.55708C6.78631 4.55708 5.73413 5.48622 5.73413 6.72622H7.23413C7.23413 6.3972 7.52971 6.05708 7.98948 6.05708V4.55708ZM10.2463 6.72622C10.2463 5.48528 9.19164 4.55708 7.98948 4.55708V6.05708C8.45025 6.05708 8.74633 6.39814 8.74633 6.72622H10.2463ZM7.98948 8.89683C9.19294 8.89683 10.2463 7.96522 10.2463 6.72622H8.74633C8.74633 7.05479 8.44896 7.39683 7.98948 7.39683V8.89683ZM17.7048 6.72622C17.7048 5.48669 16.6538 4.55708 15.4502 4.55708V6.05708C15.9094 6.05708 16.2048 6.39673 16.2048 6.72622H17.7048ZM15.4502 8.89683C16.6551 8.89683 17.7048 7.9638 17.7048 6.72622H16.2048C16.2048 7.05621 15.9081 7.39683 15.4502 7.39683V8.89683ZM13.1956 6.72622C13.1956 7.96357 14.2442 8.89683 15.4502 8.89683V7.39683C14.9917 7.39683 14.6956 7.05645 14.6956 6.72622H13.1956ZM15.4502 4.55708C14.2455 4.55708 13.1956 5.48693 13.1956 6.72622H14.6956C14.6956 6.39649 14.9904 6.05708 15.4502 6.05708V4.55708Z" fill="white"/>
<path d="M27.4454 22.2781L27.834 22.9196L27.8425 22.9143L27.4454 22.2781ZM27.3621 22.3285L26.9736 21.687L26.4639 21.9957L26.6494 22.5619L27.3621 22.3285ZM28.2371 25.0001L27.9034 25.6717L29.5073 26.4687L28.9499 24.7666L28.2371 25.0001ZM24.9645 23.374L25.2982 22.7024L25.0358 22.572L24.7546 22.654L24.9645 23.374ZM24.8099 23.4172L24.6251 22.6902L24.6128 22.6935L24.8099 23.4172ZM12.1372 16.415C12.1372 21.0417 16.68 24.5452 21.9456 24.5452V23.0452C17.2065 23.0452 13.6372 19.9406 13.6372 16.415H12.1372ZM21.9456 8.28638C16.6801 8.28638 12.1372 11.7897 12.1372 16.415H13.6372C13.6372 12.891 17.2064 9.78638 21.9456 9.78638V8.28638ZM31.7502 16.415C31.7502 11.79 27.2091 8.28638 21.9456 8.28638V9.78638C26.6822 9.78638 30.2502 12.8908 30.2502 16.415H31.7502ZM27.8425 22.9143C30.1736 21.4596 31.7502 19.1174 31.7502 16.415H30.2502C30.2502 18.4943 29.0382 20.4001 27.0484 21.6418L27.8425 22.9143ZM27.7507 22.97L27.8339 22.9196L27.0569 21.6365L26.9736 21.687L27.7507 22.97ZM28.9499 24.7666L28.0749 22.0951L26.6494 22.5619L27.5244 25.2335L28.9499 24.7666ZM24.6308 24.0457L27.9034 25.6717L28.5708 24.3284L25.2982 22.7024L24.6308 24.0457ZM24.9947 24.1441C25.0319 24.1346 25.0797 24.1212 25.1116 24.1121C25.1289 24.1072 25.1445 24.1027 25.1557 24.0995C25.1613 24.0979 25.1659 24.0965 25.1691 24.0956C25.1707 24.0951 25.172 24.0948 25.1729 24.0945C25.1733 24.0944 25.1737 24.0943 25.174 24.0942C25.1741 24.0942 25.1742 24.0941 25.1743 24.0941C25.1743 24.0941 25.1744 24.0941 25.1744 24.0941C25.1744 24.0941 25.1744 24.0941 25.1744 24.0941C25.1744 24.0941 25.1744 24.0941 25.1744 24.0941C25.1745 24.094 25.1745 24.094 24.9645 23.374C24.7546 22.654 24.7546 22.654 24.7546 22.654C24.7546 22.654 24.7546 22.654 24.7546 22.654C24.7546 22.654 24.7546 22.654 24.7546 22.654C24.7546 22.654 24.7546 22.654 24.7546 22.654C24.7546 22.654 24.7545 22.654 24.7545 22.654C24.7543 22.6541 24.7541 22.6541 24.7538 22.6542C24.7532 22.6544 24.7522 22.6547 24.7509 22.6551C24.7483 22.6558 24.7444 22.657 24.7396 22.6583C24.7299 22.6611 24.7165 22.665 24.7017 22.6692C24.6692 22.6784 24.6398 22.6866 24.6252 22.6903L24.9947 24.1441ZM21.9456 24.5452C23.0121 24.5452 24.0435 24.4033 25.0071 24.1408L24.6128 22.6935C23.7783 22.9209 22.8796 23.0452 21.9456 23.0452V24.5452ZM18.793 11.9244C17.7198 11.9244 16.771 12.7561 16.771 13.8728H18.271C18.271 13.6675 18.4628 13.4244 18.793 13.4244V11.9244ZM20.8157 13.8728C20.8157 12.7561 19.8676 11.9244 18.793 11.9244V13.4244C19.1246 13.4244 19.3157 13.6675 19.3157 13.8728H20.8157ZM18.793 15.8248C19.8694 15.8248 20.8157 14.9906 20.8157 13.8728H19.3157C19.3157 14.0827 19.1228 14.3248 18.793 14.3248V15.8248ZM16.771 13.8728C16.771 14.9906 17.718 15.8248 18.793 15.8248V14.3248C18.4646 14.3248 18.271 14.0827 18.271 13.8728H16.771ZM25.0947 11.9244C24.0199 11.9244 23.0735 12.757 23.0735 13.8728H24.5735C24.5735 13.6667 24.7647 13.4244 25.0947 13.4244V11.9244ZM27.1167 13.8728C27.1167 12.7567 26.1699 11.9244 25.0947 11.9244V13.4244C25.4258 13.4244 25.6167 13.6669 25.6167 13.8728H27.1167ZM25.0947 15.8248C26.1718 15.8248 27.1167 14.99 27.1167 13.8728H25.6167C25.6167 14.0832 25.4239 14.3248 25.0947 14.3248V15.8248ZM23.0735 13.8728C23.0735 14.9898 24.0181 15.8248 25.0947 15.8248V14.3248C24.7665 14.3248 24.5735 14.0835 24.5735 13.8728H23.0735Z" fill="white"/>
</svg>
