<svg width="80" height="80" viewBox="0 0 80 80" fill="none" xmlns="http://www.w3.org/2000/svg">
<g clip-path="url(#clip0_704_7189)">
<path fill-rule="evenodd" clip-rule="evenodd" d="M11.3535 0H68.2754V58.2953H11.3535V0ZM34.9614 4.48428V21.4324L49.1188 35.6498V53.811H63.8963V4.48428H34.961H34.9614ZM44.8499 53.811V36.7335L30.6926 22.6454V4.48428H15.7322V53.811H44.8499Z" fill="#1E1E1E"/>
<path fill-rule="evenodd" clip-rule="evenodd" d="M0 68.479H12.5342L11.1302 70.1119L4.03036 78.3672H12.5342V80.0001H0L8.49536 70.1119H0V68.479Z" fill="#1E1E1E"/>
<path fill-rule="evenodd" clip-rule="evenodd" d="M17.2285 68.479H28.8991V70.1119H18.8456V73.1923H28.1352V74.8252H18.8456V78.3672H28.8991V80.0001H17.2285V68.479Z" fill="#1E1E1E"/>
<path fill-rule="evenodd" clip-rule="evenodd" d="M33.2402 68.479H44.9108V70.1119H34.8573V73.1923H44.1473V74.8252H34.8573V78.3672H44.9108V80.0001H33.2402V68.479Z" fill="#1E1E1E"/>
<path fill-rule="evenodd" clip-rule="evenodd" d="M49.5742 68.479H51.2466V80.0001H49.5742V68.479ZM60.0381 68.6373L51.7603 74.1478L51.6227 74.216L51.64 74.2276L51.6227 74.2391L51.7603 74.3073L60.0381 79.8178L62.9833 79.8406L54.373 74.2271L62.9833 68.6142L60.0381 68.6369V68.6373Z" fill="#1E1E1E"/>
<path fill-rule="evenodd" clip-rule="evenodd" d="M66.5898 68.479H68.2622V68.4844H75.6034H75.6643V68.486C77.5243 68.5439 79.047 70.1442 79.047 72.0623C79.047 73.9763 77.5195 75.5799 75.6643 75.6439V75.646H75.5925H73.5638L79.9998 79.8418L77.0546 79.8191L68.7767 74.3086L68.6391 74.2404L68.6565 74.2288L68.6391 74.2172L68.6565 74.2086L68.6391 74.2003H68.6726L68.6843 74.1945H71.4415L71.4326 74.2003H75.5981C76.7394 74.1759 77.6962 73.2373 77.6962 72.0627C77.6962 70.8881 76.6841 69.9549 75.5424 69.9309H68.2622V80.0009H66.5898V69.9309V68.4852V68.4798V68.479Z" fill="#1E1E1E"/>
</g>
<defs>
<clipPath id="clip0_704_7189">
<rect width="80" height="80" fill="white"/>
</clipPath>
</defs>
</svg>
