<svg width="32" height="22" viewBox="0 0 32 22" fill="none" xmlns="http://www.w3.org/2000/svg">
<path d="M12.25 21L18.25 11H9.25L15.25 1M31 12.6667V9.33333M19 21H19.3C21.8202 21 23.0804 21 24.043 20.455C24.8897 19.9757 25.5781 19.2108 26.0095 18.27C26.5 17.2004 26.5 15.8003 26.5 13V7.66667C26.5 6.11671 26.5 5.34174 26.3467 4.7059C25.9306 2.98044 24.7176 1.63271 23.1647 1.17037C22.5924 1 21.895 1 20.5 1M8.5 1H8.2C5.67976 1 4.41965 1 3.45704 1.54497C2.61031 2.02433 1.9219 2.78924 1.49047 3.73005C1 4.79961 1 6.19974 1 9V14.3333C1 15.8833 1 16.6583 1.15333 17.2941C1.56944 19.0196 2.7824 20.3673 4.33531 20.8296C4.90756 21 5.60504 21 7 21" stroke="#808080" stroke-width="1.5" stroke-linecap="round" stroke-linejoin="round"/>
</svg>
