<svg width="22" height="20" viewBox="0 0 22 20" fill="none" xmlns="http://www.w3.org/2000/svg">
<path d="M4.6619 3.81755C4.6619 3.81755 4.04232 4.75694 3.20911 4.85485C3.20911 4.85485 3.1121 5.85262 2.1051 5.30518C1.83658 5.15901 1.7364 4.54179 2.00789 4.15033L2.22132 3.83647C2.22132 3.83647 2.78274 2.07542 3.28669 1.56582C3.28669 1.56582 3.46118 0.685799 3.28669 0.27462C3.28669 0.27462 3.59653 0.450925 3.69314 0.62673C3.69314 0.62673 3.6548 0.0977138 3.55749 0C3.55749 0 4.50693 0.588185 4.56519 0.921073C4.56519 0.921073 6.4829 0.352711 8.05192 1.88039C8.05192 1.88039 7.45156 1.72391 7.23872 1.8023C7.23872 1.8023 9.15593 2.89858 9.50501 4.18978C9.50501 4.18978 8.88513 3.7782 8.69122 3.83707C8.69122 3.83707 10.0663 5.05078 9.81455 7.16424C9.81455 7.16424 9.97002 7.59545 11.5775 7.67354C11.5775 7.67354 14.0765 7.69336 15.0452 9.12272C15.0452 9.12272 16.6529 9.00529 17.8933 10.5318C17.8933 10.5318 18.9974 12.4697 20.315 12.2142C20.315 12.2142 19.0171 12.8213 18.397 12.274C18.397 12.274 18.6301 13.3113 22 14.0161C22 14.0161 17.0751 15.9979 16.6528 12.4698C16.5873 11.9112 16.808 10.1406 15.6262 10.4732C15.6262 10.4732 16.1691 12.3136 13.5922 14.0558C13.5922 14.0558 12.9918 14.76 13.6502 16.2672C13.6502 16.2672 13.9805 17.3242 12.682 17.4608C12.682 17.4608 11.4802 17.9697 10.9768 19.0462C10.9768 19.0462 10.5511 19.261 10.2213 19.261C10.2213 19.261 9.98904 20.122 9.54335 19.9853C9.54335 19.9853 8.30379 19.8681 8.7685 19.358L8.94299 19.0846C8.94299 19.0846 8.34263 19.2409 8.94299 18.4391C8.94299 18.4391 9.23351 18.0668 10.3381 18.0865C10.3381 18.0865 10.551 17.6171 11.6359 17.1663C11.6359 17.1663 12.3727 16.7947 11.4427 15.2288C11.4427 15.2288 10.9967 13.8785 10.7062 13.6629C10.7062 13.6629 10.7645 12.88 10.4738 12.5469C10.4738 12.5469 8.4977 13.7009 5.33945 10.8639L4.73909 11.4326C4.73909 11.4326 3.30562 11.3935 2.97646 10.7084C2.97646 10.7084 2.12432 11.2173 2.45348 12.5481C2.45348 12.5481 2.53077 12.9984 2.43416 13.2138C2.43416 13.2138 3.09268 13.1357 3.0154 14.0168C3.0154 14.0168 3.11201 15.0926 2.62797 14.8187C2.62797 14.8187 2.20161 14.5837 2.16326 13.9381C2.16326 13.9381 1.96935 13.3706 1.65931 13.1552C1.65931 13.1552 1.35006 12.7635 1.7369 12.1373C1.7369 12.1373 1.89206 11.6284 1.91198 11.1397C1.91198 11.1397 2.02821 10.5715 2.16385 10.4544C2.16385 10.4544 0.80767 10.2188 0.768829 12.9196L1.00158 12.9983C1.00158 12.9983 1.67923 14.2115 0.788151 14.6618C0.788151 14.6618 0.478013 14.7996 0.343058 14.3092L0.245855 13.2522C0.245855 13.2522 -0.218856 12.371 0.129528 11.6272C0.129528 11.6272 0.632685 11.0212 0.788151 10.0028C0.788151 10.0028 0.827091 9.20072 2.16385 9.41466C2.16385 9.41466 3.22893 9.76737 4.06204 9.43449C4.06204 9.43449 4.0014 7.84273 4.62455 7.02628C5.10848 6.39174 5.78583 4.40423 4.6619 3.81755Z" fill="#808080"/>
</svg>
