<svg width="22" height="20" viewBox="0 0 22 20" fill="none" xmlns="http://www.w3.org/2000/svg">
<path d="M22 10.8108C22 9.12198 21.5974 7.45665 20.8245 5.94829C20.0516 4.43996 18.93 3.13054 17.5493 2.12501C16.1687 1.11951 14.5676 0.445883 12.8744 0.158093C11.1811 -0.129663 9.44286 -0.0235604 7.79884 0.467921C6.15481 0.95937 4.65084 1.82257 3.40743 2.98824C2.16409 4.15392 1.21583 5.5897 0.63877 7.18044C0.0617131 8.77118 -0.128088 10.4727 0.0845403 12.1485C0.297168 13.8244 0.906317 15.4279 1.86318 16.8307L2.31912 16.5303C1.20186 14.8956 0.550012 12.928 0.550012 10.8108C0.550012 5.13869 5.22863 0.540537 11 0.540537C16.7714 0.540537 21.45 5.13869 21.45 10.8108H22Z" fill="#808080"/>
<path d="M11 11.8919C11.6075 11.8919 12.1 11.4079 12.1 10.8108C12.1 10.2138 11.6075 9.72973 11 9.72973C10.3925 9.72973 9.90001 10.2138 9.90001 10.8108C9.90001 11.4079 10.3925 11.8919 11 11.8919Z" fill="#808080"/>
<path fill-rule="evenodd" clip-rule="evenodd" d="M11 17.8378C14.9488 17.8378 18.15 14.6917 18.15 10.8108C18.15 6.9299 14.9488 3.78378 11 3.78378C7.05118 3.78378 3.85001 6.9299 3.85001 10.8108C3.85001 14.6917 7.05118 17.8378 11 17.8378ZM11 17.2973C14.6451 17.2973 17.6 14.3932 17.6 10.8108C17.6 7.22841 14.6451 4.32432 11 4.32432C7.35492 4.32432 4.40001 7.22841 4.40001 10.8108C4.40001 14.3932 7.35492 17.2973 11 17.2973Z" fill="#808080"/>
<path fill-rule="evenodd" clip-rule="evenodd" d="M20.35 10.8108C20.35 15.8859 16.1638 20 11 20C5.83617 20 1.65001 15.8859 1.65001 10.8108C1.65001 5.73575 5.83617 1.62162 11 1.62162C16.1638 1.62162 20.35 5.73575 20.35 10.8108ZM18.7 10.8108C18.7 14.9903 15.2526 18.3784 11 18.3784C6.74745 18.3784 3.30001 14.9903 3.30001 10.8108C3.30001 6.63135 6.74745 3.24324 11 3.24324C15.2526 3.24324 18.7 6.63135 18.7 10.8108Z" fill="#808080"/>
</svg>
