<svg width="160" height="30" viewBox="0 0 160 30" fill="none" xmlns="http://www.w3.org/2000/svg">
<path d="M26.2333 0.735868C26.2735 0.735868 26.2936 0.755937 26.2936 0.796075V1.07704C26.2936 1.11718 26.2735 1.13725 26.2333 1.13725H24.9332C24.8595 1.13725 24.7992 1.14394 24.7523 1.15732C24.7053 1.16847 24.6685 1.18854 24.6417 1.21753C24.6149 1.24429 24.5959 1.28219 24.5847 1.33125C24.5735 1.37808 24.568 1.43606 24.568 1.50518V1.80288C24.568 1.87423 24.5735 1.93333 24.5847 1.98015C24.5959 2.02698 24.6149 2.06489 24.6417 2.09388C24.6685 2.12064 24.7053 2.14071 24.7523 2.15409C24.7992 2.16524 24.8595 2.17081 24.9332 2.17081H26.2333C26.2735 2.17081 26.2936 2.19088 26.2936 2.23102V2.51199C26.2936 2.55212 26.2735 2.57219 26.2333 2.57219H24.8863C24.7344 2.57219 24.6071 2.55993 24.5043 2.5354C24.4038 2.51087 24.3222 2.47185 24.2597 2.41833C24.1994 2.36258 24.1558 2.29234 24.129 2.2076C24.1022 2.12064 24.0888 2.01695 24.0888 1.89653V1.41487C24.0888 1.29446 24.1022 1.19188 24.129 1.10715C24.1558 1.02018 24.1994 0.949939 24.2597 0.896421C24.3222 0.840674 24.4038 0.800535 24.5043 0.776006C24.6071 0.749247 24.7344 0.735868 24.8863 0.735868H26.2333Z" fill="#1E1E1E"/>
<path fill-rule="evenodd" clip-rule="evenodd" d="M28.0981 0.735868C28.2477 0.735868 28.3739 0.749247 28.4767 0.776006C28.5795 0.800535 28.661 0.840674 28.7213 0.896421C28.7839 0.949939 28.8285 1.02018 28.8553 1.10715C28.8821 1.19188 28.8955 1.29446 28.8955 1.41487V2.3046C28.8955 2.35812 28.8911 2.40272 28.8821 2.4384C28.8754 2.47185 28.862 2.49861 28.8419 2.51868C28.8241 2.53874 28.7995 2.55324 28.7682 2.56216C28.7369 2.56885 28.6967 2.57219 28.6476 2.57219H27.0526C26.9543 2.57219 26.8717 2.56327 26.8047 2.54543C26.7399 2.52537 26.6874 2.49638 26.6472 2.45847C26.607 2.42056 26.5779 2.3715 26.5601 2.31129C26.5444 2.25109 26.5366 2.17973 26.5366 2.09722V1.93667C26.5366 1.86754 26.5444 1.80622 26.5601 1.7527C26.5779 1.69696 26.607 1.65013 26.6472 1.61222C26.6874 1.57431 26.7399 1.54644 26.8047 1.5286C26.8717 1.50853 26.9543 1.49849 27.0526 1.49849H28.4164V1.43494C28.4164 1.38143 28.4108 1.33571 28.3996 1.2978C28.3885 1.2599 28.3695 1.22979 28.3427 1.20749C28.3159 1.18296 28.279 1.16512 28.2321 1.15397C28.1852 1.14283 28.1249 1.13725 28.0512 1.13725H26.6505C26.6103 1.13725 26.5902 1.11718 26.5902 1.07704V0.796075C26.5902 0.755937 26.6103 0.735868 26.6505 0.735868H28.0981ZM28.3192 2.20426C28.355 2.20426 28.3795 2.19645 28.3929 2.18085C28.4086 2.16301 28.4164 2.1329 28.4164 2.09053V1.79619H27.19C27.1208 1.79619 27.0716 1.81068 27.0426 1.83967C27.0158 1.86643 27.0024 1.90657 27.0024 1.96008V2.03033C27.0024 2.09053 27.0158 2.13513 27.0426 2.16412C27.0716 2.19088 27.1208 2.20426 27.19 2.20426H28.3192Z" fill="#1E1E1E"/>
<path d="M30.9799 0.735868C31.0202 0.735868 31.0403 0.755937 31.0403 0.796075V1.07704C31.0403 1.11718 31.0202 1.13725 30.9799 1.13725H30.0886C30.0172 1.13725 29.958 1.14394 29.911 1.15732C29.8641 1.16847 29.8262 1.18854 29.7971 1.21753C29.7703 1.24429 29.7513 1.28219 29.7402 1.33125C29.729 1.37808 29.7234 1.43606 29.7234 1.50518V2.49861C29.7234 2.54766 29.6988 2.57219 29.6497 2.57219H29.3213C29.2699 2.57219 29.2442 2.54766 29.2442 2.49861V1.41487C29.2442 1.29446 29.2576 1.19188 29.2845 1.10715C29.3113 1.02018 29.3548 0.949939 29.4151 0.896421C29.4777 0.840674 29.5592 0.800535 29.6597 0.776006C29.7625 0.749247 29.8898 0.735868 30.0417 0.735868H30.9799Z" fill="#1E1E1E"/>
<path d="M33.4303 0.735868C33.4705 0.735868 33.4906 0.755937 33.4906 0.796075V1.06366C33.4906 1.1038 33.4705 1.12387 33.4303 1.12387H31.9191C31.8499 1.12387 31.8018 1.13725 31.775 1.16401C31.7482 1.18854 31.7348 1.22533 31.7348 1.27439V1.32456C31.7348 1.36916 31.7482 1.40484 31.775 1.4316C31.8018 1.45613 31.8499 1.46839 31.9191 1.46839H33.0483C33.236 1.46839 33.37 1.50741 33.4504 1.58546C33.5308 1.66351 33.571 1.77389 33.571 1.9166V2.10391C33.571 2.1775 33.5621 2.24328 33.5442 2.30126C33.5264 2.35924 33.4962 2.4083 33.4538 2.44843C33.4136 2.48857 33.3599 2.51979 33.2929 2.54209C33.2259 2.56216 33.1433 2.57219 33.045 2.57219H31.3294C31.2892 2.57219 31.2691 2.55212 31.2691 2.51199V2.2444C31.2691 2.20426 31.2892 2.18419 31.3294 2.18419H32.9176C32.9869 2.18419 33.0349 2.17193 33.0617 2.1474C33.0908 2.12287 33.1053 2.08161 33.1053 2.02364V1.93333C33.1053 1.88873 33.0908 1.85416 33.0617 1.82964C33.0349 1.80511 32.9869 1.79284 32.9176 1.79284H31.7918C31.6041 1.79284 31.4701 1.75493 31.3897 1.67912C31.3093 1.60107 31.2691 1.48846 31.2691 1.34129V1.19411C31.2691 1.12499 31.278 1.06255 31.2959 1.0068C31.3137 0.948824 31.3428 0.899766 31.383 0.859628C31.4254 0.819489 31.4802 0.789386 31.5472 0.769317C31.6142 0.747018 31.6968 0.735868 31.7951 0.735868H33.4303Z" fill="#1E1E1E"/>
<path d="M35.2838 0.735868V0.665626C35.2838 0.547441 35.2939 0.447096 35.314 0.364589C35.3341 0.279853 35.3699 0.210726 35.4212 0.157208C35.4726 0.10369 35.5419 0.0646672 35.629 0.0401383C35.7161 0.0133794 35.8267 0 35.9607 0H36.3662C36.4064 0 36.4265 0.0200691 36.4265 0.0602074V0.334486C36.4265 0.374624 36.4064 0.394693 36.3662 0.394693H36.0411C35.9317 0.394693 35.8568 0.416992 35.8166 0.46159C35.7786 0.503958 35.7597 0.57197 35.7597 0.665626V0.735868H36.3461C36.3863 0.735868 36.4064 0.755937 36.4064 0.796075V1.07035C36.4064 1.11049 36.3863 1.13056 36.3461 1.13056H35.7597V2.49861C35.7597 2.54766 35.7351 2.57219 35.6859 2.57219H35.3576C35.3084 2.57219 35.2838 2.54766 35.2838 2.49861V1.13056H34.9622C34.922 1.13056 34.9019 1.11049 34.9019 1.07035V0.796075C34.9019 0.755937 34.922 0.735868 34.9622 0.735868H35.2838Z" fill="#1E1E1E"/>
<path d="M38.4243 0.735868C38.4645 0.735868 38.4846 0.755937 38.4846 0.796075V1.07704C38.4846 1.11718 38.4645 1.13725 38.4243 1.13725H37.533C37.4615 1.13725 37.4023 1.14394 37.3554 1.15732C37.3085 1.16847 37.2705 1.18854 37.2415 1.21753C37.2147 1.24429 37.1957 1.28219 37.1845 1.33125C37.1734 1.37808 37.1678 1.43606 37.1678 1.50518V2.49861C37.1678 2.54766 37.1432 2.57219 37.0941 2.57219H36.7657C36.7143 2.57219 36.6886 2.54766 36.6886 2.49861V1.41487C36.6886 1.29446 36.702 1.19188 36.7288 1.10715C36.7556 1.02018 36.7992 0.949939 36.8595 0.896421C36.9221 0.840674 37.0036 0.800535 37.1041 0.776006C37.2069 0.749247 37.3342 0.735868 37.4861 0.735868H38.4243Z" fill="#1E1E1E"/>
<path fill-rule="evenodd" clip-rule="evenodd" d="M40.4692 0.735868C40.6189 0.735868 40.7451 0.749247 40.8479 0.776006C40.9506 0.800535 41.0322 0.840674 41.0925 0.896421C41.155 0.949939 41.1997 1.02018 41.2265 1.10715C41.2533 1.19188 41.2667 1.29446 41.2667 1.41487V1.89653C41.2667 2.01695 41.2533 2.12064 41.2265 2.2076C41.1997 2.29234 41.155 2.36258 41.0925 2.41833C41.0322 2.47185 40.9506 2.51087 40.8479 2.5354C40.7451 2.55993 40.6189 2.57219 40.4692 2.57219H39.521C39.3691 2.57219 39.2417 2.55993 39.139 2.5354C39.0385 2.51087 38.9569 2.47185 38.8944 2.41833C38.8341 2.36258 38.7905 2.29234 38.7637 2.2076C38.7369 2.12064 38.7235 2.01695 38.7235 1.89653V1.41487C38.7235 1.29446 38.7369 1.19188 38.7637 1.10715C38.7905 1.02018 38.8341 0.949939 38.8944 0.896421C38.9569 0.840674 39.0385 0.800535 39.139 0.776006C39.2417 0.749247 39.3691 0.735868 39.521 0.735868H40.4692ZM39.2026 1.81291C39.2026 1.88427 39.2082 1.94336 39.2194 1.99019C39.2306 2.03702 39.2496 2.07492 39.2764 2.10391C39.3054 2.13067 39.3434 2.15074 39.3903 2.16412C39.4372 2.17527 39.4964 2.18085 39.5679 2.18085H40.4223C40.496 2.18085 40.5564 2.17527 40.6033 2.16412C40.6502 2.15074 40.687 2.13067 40.7138 2.10391C40.7429 2.07492 40.763 2.03702 40.7742 1.99019C40.7853 1.94336 40.7909 1.88427 40.7909 1.81291V1.49515C40.7909 1.42602 40.7853 1.36805 40.7742 1.32122C40.763 1.27439 40.7429 1.23648 40.7138 1.20749C40.687 1.1785 40.6502 1.15843 40.6033 1.14729C40.5564 1.13614 40.496 1.13056 40.4223 1.13056H39.5679C39.4964 1.13056 39.4372 1.13614 39.3903 1.14729C39.3434 1.15843 39.3054 1.1785 39.2764 1.20749C39.2496 1.23648 39.2306 1.27439 39.2194 1.32122C39.2082 1.36805 39.2026 1.42602 39.2026 1.49515V1.81291Z" fill="#1E1E1E"/>
<path d="M44.1624 0.735868C44.312 0.735868 44.4371 0.749247 44.5376 0.776006C44.6404 0.800535 44.7231 0.840674 44.7856 0.896421C44.8482 0.949939 44.8917 1.02018 44.9163 1.10715C44.9431 1.19188 44.9565 1.29446 44.9565 1.41487V2.49861C44.9565 2.54766 44.9319 2.57219 44.8828 2.57219H44.5544C44.5053 2.57219 44.4807 2.54766 44.4807 2.49861V1.5286C44.4807 1.45947 44.4762 1.40149 44.4673 1.35467C44.4583 1.30561 44.4416 1.2677 44.417 1.24094C44.3924 1.21195 44.3578 1.19188 44.3131 1.18073C44.2685 1.16735 44.2093 1.16066 44.1355 1.16066H43.5458V2.49861C43.5458 2.54766 43.5201 2.57219 43.4687 2.57219H43.1404C43.0912 2.57219 43.0667 2.54766 43.0667 2.49861V1.16066H42.497C42.4255 1.16066 42.3663 1.16735 42.3194 1.18073C42.2725 1.19188 42.2345 1.21195 42.2055 1.24094C42.1787 1.2677 42.1597 1.30561 42.1485 1.35467C42.1374 1.40149 42.1318 1.45947 42.1318 1.5286V2.49861C42.1318 2.54766 42.1072 2.57219 42.0581 2.57219H41.7297C41.6783 2.57219 41.6526 2.54766 41.6526 2.49861V1.41487C41.6526 1.29446 41.666 1.19188 41.6928 1.10715C41.7196 1.02018 41.7632 0.949939 41.8235 0.896421C41.8861 0.840674 41.9676 0.800535 42.0681 0.776006C42.1709 0.749247 42.2982 0.735868 42.4501 0.735868H44.1624Z" fill="#1E1E1E"/>
<path d="M48.5599 0.735868C48.6001 0.735868 48.6202 0.755937 48.6202 0.796075V1.07704C48.6202 1.11718 48.6001 1.13725 48.5599 1.13725H47.2598C47.186 1.13725 47.1257 1.14394 47.0788 1.15732C47.0319 1.16847 46.9951 1.18854 46.9682 1.21753C46.9414 1.24429 46.9225 1.28219 46.9113 1.33125C46.9001 1.37808 46.8945 1.43606 46.8945 1.50518V1.80288C46.8945 1.87423 46.9001 1.93333 46.9113 1.98015C46.9225 2.02698 46.9414 2.06489 46.9682 2.09388C46.9951 2.12064 47.0319 2.14071 47.0788 2.15409C47.1257 2.16524 47.186 2.17081 47.2598 2.17081H48.5599C48.6001 2.17081 48.6202 2.19088 48.6202 2.23102V2.51199C48.6202 2.55212 48.6001 2.57219 48.5599 2.57219H47.2129C47.061 2.57219 46.9336 2.55993 46.8309 2.5354C46.7303 2.51087 46.6488 2.47185 46.5863 2.41833C46.5259 2.36258 46.4824 2.29234 46.4556 2.2076C46.4288 2.12064 46.4154 2.01695 46.4154 1.89653V1.41487C46.4154 1.29446 46.4288 1.19188 46.4556 1.10715C46.4824 1.02018 46.5259 0.949939 46.5863 0.896421C46.6488 0.840674 46.7303 0.800535 46.8309 0.776006C46.9336 0.749247 47.061 0.735868 47.2129 0.735868H48.5599Z" fill="#1E1E1E"/>
<path d="M49.3423 0.0635522C49.3915 0.0635522 49.416 0.0880812 49.416 0.137139V0.735868H50.6692C50.8189 0.735868 50.9451 0.749247 51.0479 0.776006C51.1506 0.800535 51.2322 0.840674 51.2925 0.896421C51.355 0.949939 51.3997 1.02018 51.4265 1.10715C51.4533 1.19188 51.4667 1.29446 51.4667 1.41487V2.49861C51.4667 2.54766 51.4422 2.57219 51.393 2.57219H51.0646C51.0155 2.57219 50.9909 2.54766 50.9909 2.49861V1.5286C50.9909 1.45947 50.9865 1.40149 50.9775 1.35467C50.9686 1.30561 50.9507 1.2677 50.9239 1.24094C50.8993 1.21195 50.8647 1.19188 50.82 1.18073C50.7753 1.16735 50.7173 1.16066 50.6458 1.16066H49.416V2.49861C49.416 2.54766 49.3915 2.57219 49.3423 2.57219H49.014C48.9648 2.57219 48.9402 2.54766 48.9402 2.49861V0.137139C48.9402 0.0880812 48.9648 0.0635522 49.014 0.0635522H49.3423Z" fill="#1E1E1E"/>
<path d="M52.2874 0.735868C52.3365 0.735868 52.3611 0.761512 52.3611 0.8128V2.49861C52.3611 2.54766 52.3365 2.57219 52.2874 2.57219H51.959C51.9098 2.57219 51.8853 2.54766 51.8853 2.49861V0.8128C51.8853 0.761512 51.9098 0.735868 51.959 0.735868H52.2874Z" fill="#1E1E1E"/>
<path d="M52.2874 0.0568626C52.3365 0.0568626 52.3611 0.0813915 52.3611 0.130449V0.448211C52.3611 0.499498 52.3365 0.525142 52.2874 0.525142H51.959C51.9076 0.525142 51.8819 0.499498 51.8819 0.448211V0.130449C51.8819 0.0813915 51.9076 0.0568626 51.959 0.0568626H52.2874Z" fill="#1E1E1E"/>
<path d="M54.5342 0.735868C54.6838 0.735868 54.81 0.749247 54.9128 0.776006C55.0156 0.800535 55.0971 0.840674 55.1574 0.896421C55.22 0.949939 55.2646 1.02018 55.2914 1.10715C55.3182 1.19188 55.3316 1.29446 55.3316 1.41487V2.49861C55.3316 2.54766 55.3071 2.57219 55.2579 2.57219H54.9296C54.8804 2.57219 54.8558 2.54766 54.8558 2.49861V1.5286C54.8558 1.45947 54.8514 1.40149 54.8424 1.35467C54.8335 1.30561 54.8156 1.2677 54.7888 1.24094C54.7643 1.21195 54.7296 1.19188 54.6849 1.18073C54.6403 1.16735 54.5822 1.16066 54.5107 1.16066H53.6194C53.5479 1.16066 53.4887 1.16735 53.4418 1.18073C53.3949 1.19188 53.3569 1.21195 53.3279 1.24094C53.3011 1.2677 53.2821 1.30561 53.2709 1.35467C53.2597 1.40149 53.2542 1.45947 53.2542 1.5286V2.49861C53.2542 2.54766 53.2296 2.57219 53.1804 2.57219H52.8521C52.8007 2.57219 52.775 2.54766 52.775 2.49861V1.41487C52.775 1.29446 52.7884 1.19188 52.8152 1.10715C52.842 1.02018 52.8856 0.949939 52.9459 0.896421C53.0084 0.840674 53.09 0.800535 53.1905 0.776006C53.2933 0.749247 53.4206 0.735868 53.5725 0.735868H54.5342Z" fill="#1E1E1E"/>
<path fill-rule="evenodd" clip-rule="evenodd" d="M57.2342 0.735868C57.3839 0.735868 57.5101 0.749247 57.6128 0.776006C57.7156 0.800535 57.7971 0.840674 57.8574 0.896421C57.92 0.949939 57.9647 1.02018 57.9915 1.10715C58.0183 1.19188 58.0317 1.29446 58.0317 1.41487V2.3046C58.0317 2.35812 58.0272 2.40272 58.0183 2.4384C58.0116 2.47185 57.9982 2.49861 57.9781 2.51868C57.9602 2.53874 57.9356 2.55324 57.9044 2.56216C57.8731 2.56885 57.8329 2.57219 57.7837 2.57219H56.1887C56.0905 2.57219 56.0078 2.56327 55.9408 2.54543C55.876 2.52537 55.8235 2.49638 55.7833 2.45847C55.7431 2.42056 55.7141 2.3715 55.6962 2.31129C55.6805 2.25109 55.6727 2.17973 55.6727 2.09722V1.93667C55.6727 1.86754 55.6805 1.80622 55.6962 1.7527C55.7141 1.69696 55.7431 1.65013 55.7833 1.61222C55.8235 1.57431 55.876 1.54644 55.9408 1.5286C56.0078 1.50853 56.0905 1.49849 56.1887 1.49849H57.5525V1.43494C57.5525 1.38143 57.5469 1.33571 57.5358 1.2978C57.5246 1.2599 57.5056 1.22979 57.4788 1.20749C57.452 1.18296 57.4151 1.16512 57.3682 1.15397C57.3213 1.14283 57.261 1.13725 57.1873 1.13725H55.7867C55.7464 1.13725 55.7263 1.11718 55.7263 1.07704V0.796075C55.7263 0.755937 55.7464 0.735868 55.7867 0.735868H57.2342ZM57.4553 2.20426C57.4911 2.20426 57.5157 2.19645 57.5291 2.18085C57.5447 2.16301 57.5525 2.1329 57.5525 2.09053V1.79619H56.3261C56.2569 1.79619 56.2077 1.81068 56.1787 1.83967C56.1519 1.86643 56.1385 1.90657 56.1385 1.96008V2.03033C56.1385 2.09053 56.1519 2.13513 56.1787 2.16412C56.2077 2.19088 56.2569 2.20426 56.3261 2.20426H57.4553Z" fill="#1E1E1E"/>
<path d="M66.3021 11.2889V8.63978C66.3021 8.34543 66.4495 8.19826 66.7444 8.19826H68.7348C69.0296 8.19826 69.1771 8.34543 69.1771 8.63978V11.2889H72.6954C72.9366 11.2889 73.0573 11.4093 73.0573 11.6502V13.2958C73.0573 13.5366 72.9366 13.6571 72.6954 13.6571H69.1771V18.3131C69.1771 18.875 69.291 19.2898 69.5188 19.5574C69.7467 19.8116 70.1957 19.9387 70.8659 19.9387H72.816C73.0573 19.9387 73.1779 20.0591 73.1779 20.2999V21.9456C73.1779 22.1864 73.0573 22.3069 72.816 22.3069H70.3833C69.5792 22.3069 68.9157 22.2333 68.393 22.0861C67.8703 21.9389 67.4481 21.7048 67.1264 21.3837C66.8181 21.0626 66.6037 20.6478 66.483 20.1394C66.3624 19.631 66.3021 19.0222 66.3021 18.3131V13.6571H64.3921C64.1509 13.6571 64.0303 13.5366 64.0303 13.2958V11.6502C64.0303 11.4093 64.1509 11.2889 64.3921 11.2889H66.3021Z" fill="#1E1E1E"/>
<path fill-rule="evenodd" clip-rule="evenodd" d="M46.3667 11.4695C45.9244 11.3491 45.3615 11.2889 44.6779 11.2889H38.7872C37.8758 11.2889 37.1118 11.3692 36.4953 11.5297C35.8921 11.6769 35.4029 11.9177 35.0276 12.2522C34.6657 12.5733 34.4044 12.9948 34.2435 13.5166C34.0827 14.025 34.0023 14.6405 34.0023 15.3629V18.2529C34.0023 18.9754 34.0827 19.5975 34.2435 20.1193C34.4044 20.6277 34.6657 21.0492 35.0276 21.3837C35.4029 21.7048 35.8921 21.9389 36.4953 22.0861C37.1118 22.2333 37.8758 22.3069 38.7872 22.3069H47.4523C47.6936 22.3069 47.8142 22.1864 47.8142 21.9456V20.2598C47.8142 20.019 47.6936 19.8986 47.4523 19.8986H39.0687C38.1975 19.8986 37.6077 19.7581 37.2995 19.4771C37.0046 19.1961 36.8572 18.7412 36.8572 18.1124V17.6308H47.01C47.3987 17.6308 47.6869 17.5505 47.8745 17.3899C48.0622 17.216 48.156 16.915 48.156 16.4868V14.5802C48.156 13.9782 48.1024 13.4698 47.9952 13.055C47.8879 12.6268 47.7003 12.2857 47.4322 12.0315C47.1776 11.7639 46.8224 11.5766 46.3667 11.4695ZM44.9996 15.8446H36.8572V15.3027C36.8572 14.6605 37.0046 14.2056 37.2995 13.938C37.6077 13.6571 38.1975 13.5166 39.0687 13.5166H44.115C44.5841 13.5166 44.9057 13.6035 45.08 13.7775C45.2542 13.9514 45.3413 14.2458 45.3413 14.6605V15.5034C45.3413 15.7309 45.2274 15.8446 44.9996 15.8446Z" fill="#1E1E1E"/>
<path d="M63.0549 11.6502C63.0549 11.4093 62.9342 11.2889 62.693 11.2889H54.6109C53.6995 11.2889 52.9355 11.3692 52.3189 11.5297C51.7158 11.6769 51.2266 11.9177 50.8513 12.2522C50.4894 12.5733 50.2281 12.9948 50.0672 13.5166C49.9064 14.025 49.826 14.6405 49.826 15.3629V18.2529C49.826 18.9754 49.9064 19.5975 50.0672 20.1193C50.2281 20.6277 50.4894 21.0492 50.8513 21.3837C51.2266 21.7048 51.7158 21.9389 52.3189 22.0861C52.9355 22.2333 53.6995 22.3069 54.6109 22.3069H62.693C62.9342 22.3069 63.0549 22.1864 63.0549 21.9456V20.2598C63.0549 20.019 62.9342 19.8986 62.693 19.8986H54.8923C54.45 19.8986 54.0882 19.8651 53.8067 19.7982C53.5252 19.7179 53.3041 19.5975 53.1432 19.437C52.9824 19.263 52.8685 19.0356 52.8015 18.7546C52.7344 18.4737 52.7009 18.1191 52.7009 17.691V15.9048C52.7009 15.49 52.7344 15.1422 52.8015 14.8612C52.8685 14.5669 52.9824 14.3394 53.1432 14.1789C53.3041 14.0049 53.5252 13.8845 53.8067 13.8176C54.0882 13.7373 54.45 13.6972 54.8923 13.6972H62.693C62.9342 13.6972 63.0549 13.5768 63.0549 13.336V11.6502Z" fill="#1E1E1E"/>
<path d="M85.5269 11.6502C85.5269 11.4093 85.4063 11.2889 85.165 11.2889H79.5357C78.6243 11.2889 77.8603 11.3692 77.2438 11.5297C76.6406 11.6769 76.1514 11.9177 75.7761 12.2522C75.4142 12.5733 75.1529 12.9948 74.992 13.5166C74.8312 14.025 74.7508 14.6405 74.7508 15.3629V21.8653C74.7508 22.1597 74.9049 22.3069 75.2132 22.3069H77.1834C77.4783 22.3069 77.6257 22.1597 77.6257 21.8653V15.9048C77.6257 15.49 77.6592 15.1422 77.7263 14.8612C77.7933 14.5669 77.9072 14.3394 78.068 14.1789C78.2423 14.0049 78.4701 13.8845 78.7516 13.8176C79.0331 13.7373 79.3883 13.6972 79.8172 13.6972H85.165C85.4063 13.6972 85.5269 13.5768 85.5269 13.336V11.6502Z" fill="#1E1E1E"/>
<path fill-rule="evenodd" clip-rule="evenodd" d="M97.4345 11.2889C98.3326 11.2889 99.0898 11.3692 99.7064 11.5297C100.323 11.6769 100.812 11.9177 101.174 12.2522C101.549 12.5733 101.817 12.9948 101.978 13.5166C102.139 14.025 102.219 14.6405 102.219 15.3629V18.2529C102.219 18.9754 102.139 19.5975 101.978 20.1193C101.817 20.6277 101.549 21.0492 101.174 21.3837C100.812 21.7048 100.323 21.9389 99.7064 22.0861C99.0898 22.2333 98.3326 22.3069 97.4345 22.3069H91.7449C90.8335 22.3069 90.0695 22.2333 89.453 22.0861C88.8498 21.9389 88.3606 21.7048 87.9853 21.3837C87.6234 21.0492 87.3621 20.6277 87.2012 20.1193C87.0404 19.5975 86.96 18.9754 86.96 18.2529V15.3629C86.96 14.6405 87.0404 14.025 87.2012 13.5166C87.3621 12.9948 87.6234 12.5733 87.9853 12.2522C88.3606 11.9177 88.8498 11.6769 89.453 11.5297C90.0695 11.3692 90.8335 11.2889 91.7449 11.2889H97.4345ZM89.835 17.7512C89.835 18.1793 89.8685 18.5339 89.9355 18.8148C90.0025 19.0958 90.1164 19.3232 90.2773 19.4972C90.4515 19.6577 90.6794 19.7781 90.9608 19.8584C91.2423 19.9253 91.5975 19.9588 92.0264 19.9588H97.1531C97.5954 19.9588 97.9573 19.9253 98.2387 19.8584C98.5202 19.7781 98.7413 19.6577 98.9022 19.4972C99.0764 19.3232 99.1971 19.0958 99.2641 18.8148C99.3311 18.5339 99.3646 18.1793 99.3646 17.7512V15.8446C99.3646 15.4298 99.3311 15.082 99.2641 14.801C99.1971 14.52 99.0764 14.2926 98.9022 14.1187C98.7413 13.9447 98.5202 13.8243 98.2387 13.7574C97.9573 13.6905 97.5954 13.6571 97.1531 13.6571H92.0264C91.5975 13.6571 91.2423 13.6905 90.9608 13.7574C90.6794 13.8243 90.4515 13.9447 90.2773 14.1187C90.1164 14.2926 90.0025 14.52 89.9355 14.801C89.8685 15.082 89.835 15.4298 89.835 15.8446V17.7512Z" fill="#1E1E1E"/>
<path d="M105.717 26.6551L105.717 4.91359C105.717 3.8052 104.817 2.90668 103.707 2.90668H61.822V0.230795H103.707C106.298 0.230795 108.398 2.32735 108.398 4.91359L108.398 26.6551C108.398 27.0246 108.698 27.3241 109.068 27.3241H156.649C157.019 27.3241 157.319 27.0246 157.319 26.6551V3.57565C157.319 3.20619 157.019 2.90668 156.649 2.90668H110.073V2.73944C110.073 1.59594 109.307 0.631137 108.259 0.328997C108.518 0.264841 108.789 0.230795 109.068 0.230795H156.649C158.5 0.230795 160 1.72834 160 3.57565V26.6551C160 28.5025 158.5 30 156.649 30H109.068C107.217 30 105.717 28.5025 105.717 26.6551Z" fill="#1E1E1E"/>
<path d="M103.373 27.3241H33.0052C32.265 27.3241 31.6649 26.7251 31.6649 25.9862V8.59293C31.6649 7.85401 31.0648 7.25499 30.3246 7.25499C29.5844 7.25499 28.9843 7.85401 28.9843 8.59293V25.9862C28.9843 28.2029 30.7845 30 33.0052 30H106.555C104.984 30 103.674 28.8509 103.373 27.3241Z" fill="#1E1E1E"/>
<path d="M113.77 9.2619C114.017 9.2619 114.14 9.37637 114.14 9.60531V12.3994H120.439C121.191 12.3994 121.826 12.4618 122.342 12.5867C122.859 12.7012 123.268 12.8885 123.571 13.1486C123.886 13.3984 124.11 13.7262 124.245 14.132C124.38 14.5274 124.447 15.0061 124.447 15.5681V20.6255C124.447 20.8544 124.324 20.9689 124.077 20.9689H122.426C122.179 20.9689 122.056 20.8544 122.056 20.6255V16.0988C122.056 15.7762 122.033 15.5056 121.988 15.2871C121.943 15.0582 121.854 14.8813 121.719 14.7564C121.595 14.6211 121.421 14.5274 121.197 14.4754C120.972 14.413 120.68 14.3818 120.321 14.3818H114.14V20.6255C114.14 20.8544 114.017 20.9689 113.77 20.9689H112.119C111.872 20.9689 111.749 20.8544 111.749 20.6255V9.60531C111.749 9.37637 111.872 9.2619 112.119 9.2619H113.77Z" fill="#1E1E1E"/>
<path d="M128.521 12.3994C128.768 12.3994 128.892 12.519 128.892 12.7584V17.2695C128.892 17.6025 128.914 17.8782 128.959 18.0968C129.004 18.3153 129.088 18.4922 129.212 18.6275C129.335 18.7524 129.509 18.846 129.734 18.9085C129.958 18.9605 130.256 18.9865 130.627 18.9865H134.955C135.325 18.9865 135.628 18.9605 135.864 18.9085C136.1 18.846 136.285 18.7524 136.42 18.6275C136.566 18.4922 136.667 18.3153 136.723 18.0968C136.779 17.8782 136.807 17.6025 136.807 17.2695V12.7584C136.807 12.519 136.931 12.3994 137.178 12.3994H138.828C139.075 12.3994 139.199 12.519 139.199 12.7584V17.8158C139.199 18.3777 139.132 18.8616 138.997 19.2675C138.862 19.6629 138.638 19.9907 138.323 20.2509C138.02 20.5006 137.61 20.6827 137.094 20.7972C136.577 20.9117 135.943 20.9689 135.191 20.9689H130.492C129.728 20.9689 129.088 20.9117 128.572 20.7972C128.067 20.6827 127.657 20.5006 127.342 20.2509C127.039 19.9907 126.82 19.6629 126.686 19.2675C126.551 18.8616 126.484 18.3777 126.484 17.8158V12.7584C126.484 12.519 126.613 12.3994 126.871 12.3994H128.521Z" fill="#1E1E1E"/>
<path fill-rule="evenodd" clip-rule="evenodd" d="M143.645 9.60531C143.645 9.37637 143.521 9.2619 143.274 9.2619H141.624C141.365 9.2619 141.236 9.37637 141.236 9.60531V17.8158C141.236 18.3777 141.304 18.8616 141.438 19.2675C141.573 19.6629 141.792 19.9907 142.095 20.2509C142.41 20.5006 142.819 20.6827 143.325 20.7972C143.841 20.9117 144.481 20.9689 145.245 20.9689H149.96C150.713 20.9689 151.347 20.9117 151.863 20.7972C152.38 20.6827 152.79 20.5006 153.093 20.2509C153.407 19.9907 153.632 19.6629 153.766 19.2675C153.901 18.8616 153.969 18.3777 153.969 17.8158V15.5681C153.969 15.0061 153.901 14.5274 153.766 14.132C153.632 13.7262 153.407 13.3984 153.093 13.1486C152.79 12.8885 152.38 12.7012 151.863 12.5867C151.347 12.4618 150.713 12.3994 149.96 12.3994H143.645V9.60531ZM143.645 14.2725H149.725C150.095 14.2725 150.398 14.3037 150.634 14.3662C150.87 14.4182 151.055 14.5118 151.19 14.6471C151.336 14.772 151.437 14.9489 151.493 15.1778C151.549 15.3964 151.577 15.6669 151.577 15.9895V17.3787C151.577 17.7117 151.549 17.9875 151.493 18.206C151.437 18.4246 151.336 18.6015 151.19 18.7368C151.055 18.8616 150.87 18.9553 150.634 19.0177C150.398 19.0698 150.095 19.0958 149.725 19.0958H145.48C145.121 19.0958 144.824 19.0698 144.588 19.0177C144.352 18.9553 144.161 18.8616 144.015 18.7368C143.88 18.6015 143.785 18.4246 143.729 18.206C143.673 17.9875 143.645 17.7117 143.645 17.3787V14.2725Z" fill="#1E1E1E"/>
<path d="M4.6911 0.230795H21.9476V2.90668H4.6911C3.58075 2.90668 2.68063 3.8052 2.68063 4.91359V13.1085C2.68063 14.2169 3.58075 15.1154 4.6911 15.1154H11.7606C12.8393 11.5354 16.1669 8.92742 20.1047 8.92742H20.9617C21.2287 8.92742 21.445 9.14341 21.445 9.40985V12.2723H26.1361C26.6913 12.2723 27.1414 12.7215 27.1414 13.2757C27.1414 13.8299 26.6913 14.2792 26.1361 14.2792H21.445V16.6206H24.4607C25.0159 16.6206 25.466 17.0698 25.466 17.624C25.466 18.1782 25.0159 18.6275 24.4607 18.6275H21.445V20.9689H26.1361C26.6913 20.9689 27.1414 21.4182 27.1414 21.9723C27.1414 22.5265 26.6913 22.9758 26.1361 22.9758H21.445V25.8382C21.445 26.1047 21.2287 26.3207 20.9617 26.3207H20.1047C15.3492 26.3207 11.4835 22.5171 11.3942 17.7913H4.6911C2.10028 17.7913 0 15.6947 0 13.1085V4.91359C0 2.32735 2.10028 0.230795 4.6911 0.230795Z" fill="#1E1E1E"/>
</svg>
