<svg width="24" height="24" viewBox="0 0 24 24" fill="none" xmlns="http://www.w3.org/2000/svg">
<g clip-path="url(#clip0_3001_12)">
<path fill-rule="evenodd" clip-rule="evenodd" d="M12.001 0C8.742 0 8.333 0.0142498 7.053 0.0725002C5.7755 0.131 4.9035 0.33325 4.1405 0.63C3.35125 0.9365 2.68175 1.3465 2.01475 2.01375C1.34725 2.68075 0.93725 3.35025 0.62975 4.13925C0.33225 4.9025 0.12975 5.77475 0.07225 7.05175C0.015 8.33175 0 8.741 0 12C0 15.259 0.0145 15.6667 0.0725 16.9467C0.13125 18.2242 0.3335 19.0962 0.63 19.8592C0.93675 20.6485 1.34675 21.318 2.014 21.985C2.68075 22.6525 3.35025 23.0635 4.139 23.37C4.9025 23.6667 5.77475 23.869 7.052 23.9275C8.332 23.9857 8.74075 24 11.9995 24C15.2587 24 15.6665 23.9857 16.9465 23.9275C18.224 23.869 19.097 23.6667 19.8605 23.37C20.6495 23.0635 21.318 22.6525 21.9847 21.985C22.6522 21.318 23.0623 20.6485 23.3698 19.8595C23.6648 19.0963 23.8672 18.224 23.9272 16.947C23.9847 15.667 23.9998 15.259 23.9998 12C23.9998 8.741 23.9847 8.332 23.9272 7.052C23.8672 5.7745 23.6648 4.9025 23.3698 4.1395C23.0623 3.35025 22.6522 2.68075 21.9847 2.01375C21.3172 1.34625 20.6497 0.93625 19.8598 0.63C19.0947 0.33325 18.2222 0.131 16.9447 0.0725002C15.6648 0.0142498 15.2572 0 11.9973 0H12.001ZM10.9247 2.16274C11.1337 2.16242 11.3585 2.16252 11.6012 2.16262L12.0011 2.16274C15.2051 2.16274 15.5849 2.17424 16.8501 2.23174C18.0201 2.28524 18.6551 2.48074 19.0781 2.64499C19.6381 2.86249 20.0374 3.12249 20.4571 3.54249C20.8771 3.96249 21.1371 4.36249 21.3551 4.92249C21.5194 5.34499 21.7151 5.97999 21.7684 7.14999C21.8259 8.41499 21.8384 8.79499 21.8384 11.9975C21.8384 15.2 21.8259 15.58 21.7684 16.845C21.7149 18.015 21.5194 18.65 21.3551 19.0725C21.1376 19.6325 20.8771 20.0312 20.4571 20.451C20.0371 20.871 19.6384 21.131 19.0781 21.3485C18.6556 21.5135 18.0201 21.7085 16.8501 21.762C15.5851 21.8195 15.2051 21.832 12.0011 21.832C8.7969 21.832 8.41715 21.8195 7.15215 21.762C5.98215 21.708 5.34715 21.5125 4.9239 21.3482C4.3639 21.1307 3.9639 20.8707 3.5439 20.4507C3.1239 20.0307 2.8639 19.6317 2.6459 19.0715C2.48165 18.649 2.2859 18.014 2.23265 16.844C2.17515 15.579 2.16365 15.199 2.16365 11.9945C2.16365 8.78999 2.17515 8.41199 2.23265 7.14699C2.28615 5.97699 2.48165 5.34199 2.6459 4.91899C2.8634 4.35899 3.1239 3.95899 3.5439 3.53899C3.9639 3.11899 4.3639 2.85899 4.9239 2.64099C5.3469 2.47599 5.98215 2.28099 7.15215 2.22724C8.25915 2.17724 8.68815 2.16224 10.9247 2.15974V2.16274ZM16.9666 5.59464C16.9666 4.79939 17.6116 4.15514 18.4066 4.15514C19.2016 4.15514 19.8466 4.79964 19.8466 5.59464C19.8466 6.38964 19.2016 7.03464 18.4066 7.03464C17.6116 7.03464 16.9666 6.38964 16.9666 5.59464ZM12.0007 5.83744C8.59753 5.83757 5.83842 8.59677 5.83842 11.9999C5.83842 15.4032 8.59767 18.1612 12.0009 18.1612C15.4042 18.1612 18.1624 15.4032 18.1624 11.9999C18.1624 8.59669 15.4039 5.83744 12.0007 5.83744ZM16.0009 11.9999C16.0009 9.79067 14.2099 7.99992 12.0009 7.99992C9.79164 7.99992 8.00089 9.79067 8.00089 11.9999C8.00089 14.2089 9.79164 15.9999 12.0009 15.9999C14.2099 15.9999 16.0009 14.2089 16.0009 11.9999Z" fill="black"/>
</g>
<defs>
<clipPath id="clip0_3001_12">
<rect width="24" height="24" fill="white"/>
</clipPath>
</defs>
</svg>
