<svg width="19" height="26" viewBox="0 0 19 26" fill="none" xmlns="http://www.w3.org/2000/svg">
<path d="M9.5 19.6H9.51214M4.88571 25H14.1143C15.4744 25 16.1545 25 16.674 24.7384C17.1309 24.5083 17.5025 24.1412 17.7353 23.6896C18 23.1762 18 22.5041 18 21.16V4.84C18 3.49587 18 2.82381 17.7353 2.31042C17.5025 1.85883 17.1309 1.49168 16.674 1.26158C16.1545 1 15.4744 1 14.1143 1H4.88571C3.52559 1 2.84552 1 2.32602 1.26158C1.86906 1.49168 1.49753 1.85883 1.2647 2.31042C1 2.82381 1 3.49587 1 4.84V21.16C1 22.5041 1 23.1762 1.2647 23.6896C1.49753 24.1412 1.86906 24.5083 2.32602 24.7384C2.84552 25 3.52559 25 4.88571 25ZM10.1071 19.6C10.1071 19.9314 9.83532 20.2 9.5 20.2C9.16468 20.2 8.89286 19.9314 8.89286 19.6C8.89286 19.2686 9.16468 19 9.5 19C9.83532 19 10.1071 19.2686 10.1071 19.6Z" stroke="white" stroke-width="2" stroke-linecap="round" stroke-linejoin="round"/>
</svg>
