<svg width="20" height="26" viewBox="0 0 20 26" fill="none" xmlns="http://www.w3.org/2000/svg">
<path d="M10 19.6H10.0121M5.38571 25H14.6143C15.9744 25 16.6545 25 17.174 24.7384C17.6309 24.5083 18.0025 24.1412 18.2353 23.6896C18.5 23.1762 18.5 22.5041 18.5 21.16V4.84C18.5 3.49587 18.5 2.82381 18.2353 2.31042C18.0025 1.85883 17.6309 1.49168 17.174 1.26158C16.6545 1 15.9744 1 14.6143 1H5.38571C4.02559 1 3.34552 1 2.82602 1.26158C2.36906 1.49168 1.99753 1.85883 1.7647 2.31042C1.5 2.82381 1.5 3.49587 1.5 4.84V21.16C1.5 22.5041 1.5 23.1762 1.7647 23.6896C1.99753 24.1412 2.36906 24.5083 2.82602 24.7384C3.34552 25 4.02559 25 5.38571 25ZM10.6071 19.6C10.6071 19.9314 10.3353 20.2 10 20.2C9.66468 20.2 9.39286 19.9314 9.39286 19.6C9.39286 19.2686 9.66468 19 10 19C10.3353 19 10.6071 19.2686 10.6071 19.6Z" stroke="black" stroke-width="2" stroke-linecap="round" stroke-linejoin="round"/>
</svg>
